<?xml version="1.0" encoding="iso-8859-1"?>
<!-- Generator: Adobe Illustrator 19.0.0, SVG Export Plug-In . SVG Version: 6.00 Build 0)  -->
<svg version="1.1" id="Capa_1" xmlns="http://www.w3.org/2000/svg" xmlns:xlink="http://www.w3.org/1999/xlink" x="0px" y="0px"
	 viewBox="0 0 468.293 468.293" style="enable-background:new 0 0 468.293 468.293;" xml:space="preserve">
<path style="fill:#2F4859;" d="M49.348,12.832L49.348,12.832c17.11-17.111,44.851-17.11,61.962,0.001l67.416,67.416l-61.961,61.961
	L49.349,74.795C32.239,57.684,32.238,29.943,49.348,12.832z"/>
<path style="fill:#D5D6DB;" d="M187.202,78.056l148.377,148.377c29.749,29.749,47.551,69.111,50.703,110.773l18.187,18.187
	c3.469,3.469,3.469,9.093,0,12.561l0,0c-3.469,3.469-9.093,3.469-12.561,0l-18.189-18.189
	c-41.663-3.155-81.021-20.954-110.77-50.703L114.572,150.686L187.202,78.056z"/>
<path style="fill:#27A2DB;" d="M364.856,265.514H229.4l33.548,33.548c29.749,29.749,69.107,47.549,110.77,50.704l18.189,18.188
	c3.469,3.469,9.092,3.468,12.561,0l0,0c3.469-3.469,3.469-9.093,0-12.561l-18.187-18.187
	C384.367,311.901,376.974,287.481,364.856,265.514z"/>
<path style="fill:#64798A;" d="M203.832,62.471L203.832,62.471c5.782,5.782,5.782,15.155,0,20.937l-83.908,83.908
	c-5.781,5.781-15.155,5.781-20.937,0l0,0c-5.781-5.781-5.781-15.155,0-20.937l83.908-83.908
	C188.677,56.689,198.051,56.689,203.832,62.471z"/>
<path style="fill:#27A2DB;" d="M398.186,376.886c0,0-33.59,39.265-33.59,57.816c0,18.551,15.039,33.59,33.59,33.59
	c18.551,0,33.59-15.039,33.59-33.59C431.777,416.151,398.186,376.886,398.186,376.886z"/>
<g>
</g>
<g>
</g>
<g>
</g>
<g>
</g>
<g>
</g>
<g>
</g>
<g>
</g>
<g>
</g>
<g>
</g>
<g>
</g>
<g>
</g>
<g>
</g>
<g>
</g>
<g>
</g>
<g>
</g>
</svg>
